<svg xmlns="http://www.w3.org/2000/svg" xmlns:xlink="http://www.w3.org/1999/xlink" width="266" zoomAndPan="magnify" viewBox="0 0 199.5 54.75" height="73" preserveAspectRatio="xMidYMid meet" version="1.0"><defs><g/><clipPath id="21c2872c42"><path d="M 0.203125 0 L 53 0 L 53 52 L 0.203125 52 Z M 0.203125 0 " clip-rule="nonzero"/></clipPath><clipPath id="165fb927f7"><path d="M 36 35 L 53 35 L 53 54.5 L 36 54.5 Z M 36 35 " clip-rule="nonzero"/></clipPath></defs><g clip-path="url(#21c2872c42)"><path fill="#000000" d="M 15.566406 0.335938 C 14.304688 0.335938 13.285156 1.34375 13.285156 2.585938 L 13.285156 10.269531 C 13.285156 11.519531 14.300781 12.527344 15.566406 12.527344 C 16.828125 12.527344 17.847656 11.519531 17.847656 10.269531 L 17.847656 7.652344 C 18.898438 8.382812 19.519531 9.566406 19.519531 10.835938 C 19.519531 12.992188 17.75 14.738281 15.566406 14.738281 C 13.382812 14.738281 11.613281 12.992188 11.613281 10.835938 L 11.613281 4.382812 L 8.816406 4.382812 C 7.257812 4.382812 5.777344 4.769531 4.617188 5.679688 C 3.457031 6.59375 2.722656 8.011719 2.566406 9.628906 L 0.285156 45.1875 C 0.179688 46.820312 0.550781 48.394531 1.535156 49.589844 C 2.515625 50.78125 4.070312 51.53125 5.789062 51.53125 L 33.816406 51.53125 C 33.796875 51.34375 33.789062 51.152344 33.789062 50.96875 L 33.789062 48.148438 L 6.179688 48.148438 C 5.339844 48.148438 4.824219 47.859375 4.441406 47.394531 C 4.054688 46.929688 3.851562 46.226562 3.898438 45.328125 L 5.351562 17.589844 L 47.992188 17.589844 L 49.078125 38.292969 L 52.773438 40.703125 L 50.777344 9.628906 C 50.621094 8.011719 49.886719 6.59375 48.726562 5.679688 C 47.5625 4.769531 46.082031 4.382812 44.523438 4.382812 L 40.054688 4.382812 L 40.054688 2.585938 C 40.054688 1.34375 39.039062 0.335938 37.777344 0.335938 C 36.511719 0.335938 35.496094 1.34375 35.496094 2.585938 L 35.496094 10.269531 C 35.496094 11.519531 36.511719 12.527344 37.777344 12.527344 C 39.039062 12.527344 40.054688 11.519531 40.054688 10.269531 L 40.054688 7.652344 C 41.105469 8.382812 41.726562 9.566406 41.726562 10.835938 C 41.726562 12.992188 39.957031 14.738281 37.777344 14.738281 C 35.597656 14.738281 33.824219 12.992188 33.824219 10.835938 L 33.824219 4.382812 L 17.847656 4.382812 L 17.847656 2.585938 C 17.847656 1.339844 16.828125 0.335938 15.566406 0.335938 Z M 15.566406 0.335938 " fill-opacity="1" fill-rule="evenodd"/></g><path fill="#000000" d="M 11.332031 23.339844 L 17.003906 23.339844 C 17.832031 23.339844 18.5 24 18.5 24.820312 L 18.5 29.195312 C 18.5 30.015625 17.832031 30.675781 17.003906 30.675781 L 11.332031 30.675781 C 10.5 30.675781 9.832031 30.015625 9.832031 29.195312 L 9.832031 24.820312 C 9.832031 24 10.5 23.339844 11.332031 23.339844 Z M 11.332031 23.339844 " fill-opacity="1" fill-rule="evenodd"/><path fill="#000000" d="M 23.839844 23.339844 L 29.511719 23.339844 C 30.339844 23.339844 31.007812 24 31.007812 24.820312 L 31.007812 29.195312 C 31.007812 30.015625 30.339844 30.675781 29.511719 30.675781 L 23.839844 30.675781 C 23.007812 30.675781 22.339844 30.015625 22.339844 29.195312 L 22.339844 24.820312 C 22.339844 24 23.007812 23.339844 23.839844 23.339844 Z M 23.839844 23.339844 " fill-opacity="1" fill-rule="evenodd"/><path fill="#000000" d="M 36.347656 23.339844 L 42.019531 23.339844 C 42.851562 23.339844 43.515625 24 43.515625 24.820312 L 43.515625 29.195312 C 43.515625 30.015625 42.847656 30.675781 42.019531 30.675781 L 36.347656 30.675781 C 35.515625 30.675781 34.847656 30.015625 34.847656 29.195312 L 34.847656 24.820312 C 34.847656 24 35.515625 23.339844 36.347656 23.339844 Z M 36.347656 23.339844 " fill-opacity="1" fill-rule="evenodd"/><path fill="#000000" d="M 11.332031 35.0625 L 17.003906 35.0625 C 17.832031 35.0625 18.5 35.726562 18.5 36.546875 L 18.5 40.917969 C 18.5 41.738281 17.832031 42.402344 17.003906 42.402344 L 11.332031 42.402344 C 10.5 42.402344 9.832031 41.738281 9.832031 40.917969 L 9.832031 36.546875 C 9.832031 35.726562 10.5 35.0625 11.332031 35.0625 Z M 11.332031 35.0625 " fill-opacity="1" fill-rule="evenodd"/><path fill="#000000" d="M 23.839844 35.0625 L 29.511719 35.0625 C 30.339844 35.0625 31.007812 35.726562 31.007812 36.546875 L 31.007812 40.917969 C 31.007812 41.738281 30.339844 42.402344 29.511719 42.402344 L 23.839844 42.402344 C 23.007812 42.402344 22.339844 41.738281 22.339844 40.917969 L 22.339844 36.546875 C 22.339844 35.726562 23.007812 35.0625 23.839844 35.0625 Z M 23.839844 35.0625 " fill-opacity="1" fill-rule="evenodd"/><g clip-path="url(#165fb927f7)"><path fill="#000000" d="M 36.460938 37.699219 L 36.449219 50.964844 C 36.449219 52.964844 37.941406 53.957031 39.160156 53.074219 L 42.542969 50.597656 L 45.234375 55.65625 C 45.769531 56.664062 46.902344 57.097656 47.777344 56.625 L 49.765625 55.558594 C 50.636719 55.085938 50.910156 53.902344 50.375 52.898438 L 47.691406 47.832031 L 52.113281 46.3125 C 53.195312 45.941406 53.0625 44.140625 51.390625 42.945312 L 40.292969 35.707031 C 38.519531 34.554688 36.464844 35.359375 36.460938 37.699219 Z M 36.460938 37.699219 " fill-opacity="1" fill-rule="nonzero"/></g><g fill="#000000" fill-opacity="1"><g transform="translate(57.590345, 35.433626)"><g><path d="M 11.765625 0 L 1.578125 0 L 1.578125 -14.1875 L 11.984375 -14.1875 C 13.828125 -14.1875 15.347656 -14.101562 16.546875 -13.9375 C 17.742188 -13.769531 18.664062 -13.503906 19.3125 -13.140625 C 19.957031 -12.785156 20.394531 -12.328125 20.625 -11.765625 C 20.851562 -11.210938 20.96875 -10.550781 20.96875 -9.78125 C 20.945312 -9.175781 20.78125 -8.671875 20.46875 -8.265625 C 20.15625 -7.867188 19.785156 -7.570312 19.359375 -7.375 C 18.941406 -7.1875 18.578125 -7.09375 18.265625 -7.09375 C 18.578125 -7.09375 18.941406 -7.03125 19.359375 -6.90625 C 19.773438 -6.789062 20.175781 -6.613281 20.5625 -6.375 C 20.957031 -6.144531 21.285156 -5.863281 21.546875 -5.53125 C 21.804688 -5.207031 21.9375 -4.832031 21.9375 -4.40625 C 21.9375 -3.851562 21.867188 -3.347656 21.734375 -2.890625 C 21.609375 -2.429688 21.351562 -2.019531 20.96875 -1.65625 C 20.582031 -1.300781 20.015625 -1 19.265625 -0.75 C 18.515625 -0.507812 17.53125 -0.320312 16.3125 -0.1875 C 15.09375 -0.0625 13.578125 0 11.765625 0 Z M 11.421875 -8.3125 C 12.296875 -8.3125 12.972656 -8.351562 13.453125 -8.4375 C 13.929688 -8.519531 14.257812 -8.648438 14.4375 -8.828125 C 14.625 -9.003906 14.71875 -9.226562 14.71875 -9.5 C 14.71875 -9.78125 14.625 -10.003906 14.4375 -10.171875 C 14.257812 -10.347656 13.929688 -10.476562 13.453125 -10.5625 C 12.972656 -10.644531 12.296875 -10.6875 11.421875 -10.6875 L 7.546875 -10.6875 L 7.546875 -8.3125 Z M 11.421875 -3.5 C 12.316406 -3.5 13.039062 -3.519531 13.59375 -3.5625 C 14.144531 -3.613281 14.550781 -3.722656 14.8125 -3.890625 C 15.070312 -4.054688 15.203125 -4.320312 15.203125 -4.6875 C 15.203125 -5.0625 15.070312 -5.332031 14.8125 -5.5 C 14.550781 -5.664062 14.144531 -5.769531 13.59375 -5.8125 C 13.039062 -5.851562 12.316406 -5.875 11.421875 -5.875 L 7.546875 -5.875 L 7.546875 -3.5 Z M 11.421875 -3.5 "/></g></g></g><g fill="#000000" fill-opacity="1"><g transform="translate(80.314643, 35.433626)"><g><path d="M 10.734375 0.3125 C 7.222656 0.3125 4.640625 -0.410156 2.984375 -1.859375 C 1.523438 -3.140625 0.796875 -4.882812 0.796875 -7.09375 C 0.796875 -9.300781 1.523438 -11.039062 2.984375 -12.3125 C 4.640625 -13.757812 7.222656 -14.484375 10.734375 -14.484375 C 14.242188 -14.484375 16.828125 -13.757812 18.484375 -12.3125 C 19.953125 -11.039062 20.6875 -9.300781 20.6875 -7.09375 C 20.6875 -4.882812 19.953125 -3.140625 18.484375 -1.859375 C 16.828125 -0.410156 14.242188 0.3125 10.734375 0.3125 Z M 10.734375 -3.5 C 12.171875 -3.5 13.226562 -3.910156 13.90625 -4.734375 C 14.445312 -5.398438 14.71875 -6.1875 14.71875 -7.09375 C 14.71875 -8 14.445312 -8.78125 13.90625 -9.4375 C 13.226562 -10.269531 12.171875 -10.6875 10.734375 -10.6875 C 9.296875 -10.6875 8.238281 -10.269531 7.5625 -9.4375 C 7.019531 -8.78125 6.75 -8 6.75 -7.09375 C 6.75 -6.1875 7.019531 -5.398438 7.5625 -4.734375 C 8.238281 -3.910156 9.296875 -3.5 10.734375 -3.5 Z M 10.734375 -3.5 "/></g></g></g><g fill="#000000" fill-opacity="1"><g transform="translate(101.782523, 35.433626)"><g><path d="M 10.734375 0.3125 C 7.222656 0.3125 4.640625 -0.410156 2.984375 -1.859375 C 1.523438 -3.140625 0.796875 -4.882812 0.796875 -7.09375 C 0.796875 -9.300781 1.523438 -11.039062 2.984375 -12.3125 C 4.640625 -13.757812 7.222656 -14.484375 10.734375 -14.484375 C 14.242188 -14.484375 16.828125 -13.757812 18.484375 -12.3125 C 19.953125 -11.039062 20.6875 -9.300781 20.6875 -7.09375 C 20.6875 -4.882812 19.953125 -3.140625 18.484375 -1.859375 C 16.828125 -0.410156 14.242188 0.3125 10.734375 0.3125 Z M 10.734375 -3.5 C 12.171875 -3.5 13.226562 -3.910156 13.90625 -4.734375 C 14.445312 -5.398438 14.71875 -6.1875 14.71875 -7.09375 C 14.71875 -8 14.445312 -8.78125 13.90625 -9.4375 C 13.226562 -10.269531 12.171875 -10.6875 10.734375 -10.6875 C 9.296875 -10.6875 8.238281 -10.269531 7.5625 -9.4375 C 7.019531 -8.78125 6.75 -8 6.75 -7.09375 C 6.75 -6.1875 7.019531 -5.398438 7.5625 -4.734375 C 8.238281 -3.910156 9.296875 -3.5 10.734375 -3.5 Z M 10.734375 -3.5 "/></g></g></g><g fill="#000000" fill-opacity="1"><g transform="translate(123.250403, 35.433626)"><g><path d="M 24.890625 0 L 17.15625 0 L 11.0625 -4.75 L 7.546875 -2.34375 L 7.546875 0 L 1.578125 0 L 1.578125 -14.203125 L 7.546875 -14.203125 L 7.546875 -7.625 L 17.09375 -14.203125 L 24.890625 -14.203125 L 14.71875 -7.25 Z M 24.890625 0 "/></g></g></g><g fill="#545454" fill-opacity="1"><g transform="translate(148.29216, 35.433626)"><g><path d="M 28.578125 0 L 22.625 0 L 22.625 -9.046875 L 17.296875 0 L 12.859375 0 L 7.546875 -9.046875 L 7.546875 0 L 1.578125 0 L 1.578125 -14.203125 L 8.65625 -14.203125 L 15.078125 -4.0625 L 21.5 -14.203125 L 28.578125 -14.203125 Z M 28.578125 0 "/></g></g></g><g fill="#545454" fill-opacity="1"><g transform="translate(178.446122, 35.433626)"><g><path d="M 18.6875 0 L 1.578125 0 L 1.578125 -14.203125 L 17.90625 -14.203125 L 17.90625 -10.6875 L 7.546875 -10.6875 L 7.546875 -8.453125 L 16.296875 -8.453125 L 16.296875 -5.734375 L 7.546875 -5.734375 L 7.546875 -3.515625 L 18.6875 -3.515625 Z M 18.6875 0 "/></g></g></g></svg>